<svg version="1.1" id="Layer_1" xmlns:x="ns_extend;" xmlns:i="ns_ai;" xmlns:graph="ns_graphs;" xmlns="http://www.w3.org/2000/svg" xmlns:xlink="http://www.w3.org/1999/xlink" x="0px" y="0px" viewBox="0 0 456.1 62" style="enable-background:new 0 0 456.1 62;" xml:space="preserve">
 <style type="text/css">
  .st0{fill:#28004B;}
 </style>
 <metadata>
  <sfw xmlns="ns_sfw;">
   <slices>
   </slices>
   <sliceSourceBounds bottomLeftOrigin="true" height="62" width="456.1" x="-132.1" y="-17">
   </sliceSourceBounds>
  </sfw>
 </metadata>
 <g>
  <path class="st0" d="M35.2,54.6c-1.6,2.4-3.7,4.1-6.3,5.4c-2.6,1.2-5.4,1.8-8.4,1.8c-3.2,0-6.1-0.6-8.6-1.8
		c-2.5-1.2-4.7-2.8-6.5-4.8c-1.8-2-3.1-4.3-4.1-7c-1-2.6-1.4-5.5-1.4-8.5c0-3,0.5-5.8,1.5-8.5c1-2.6,2.4-5,4.1-7
		c1.8-2,3.9-3.5,6.5-4.7c2.5-1.2,5.4-1.7,8.4-1.7c3.1,0,5.8,0.6,8.3,1.9c2.4,1.3,4.3,2.9,5.8,4.9h0.2v-5.8h10.3v41.8h-9.7v-6.1
		L35.2,54.6L35.2,54.6z M10.3,39.8c0,1.8,0.3,3.5,0.8,5.2c0.5,1.6,1.4,3.1,2.4,4.3c1.1,1.2,2.4,2.2,3.9,2.9c1.6,0.7,3.3,1.1,5.3,1.1
		c1.9,0,3.6-0.3,5.2-1.1s2.9-1.7,4-2.9c1.1-1.2,2-2.6,2.6-4.3c0.6-1.6,0.9-3.4,0.9-5.2c0-1.8-0.3-3.5-0.9-5.2
		c-0.6-1.6-1.5-3.1-2.6-4.3c-1.1-1.2-2.4-2.2-4-2.9c-1.6-0.7-3.3-1.1-5.2-1.1c-2,0-3.8,0.3-5.3,1.1c-1.6,0.7-2.9,1.7-3.9,2.9
		c-1.1,1.2-1.8,2.6-2.4,4.3C10.6,36.3,10.3,38,10.3,39.8z">
  </path>
  <path class="st0" d="M83.5,30.8c-0.8-1.2-2-2.1-3.6-2.9c-1.6-0.7-3.3-1.2-4.9-1.2c-1.9,0-3.5,0.4-5,1.2c-1.4,0.7-2.6,1.8-3.6,3.1
		c-1,1.3-1.6,2.7-2.1,4.3c-0.5,1.6-0.7,3.2-0.7,4.8c0,1.6,0.3,3.2,0.7,4.8c0.5,1.6,1.2,3,2.2,4.3c1,1.3,2.2,2.3,3.7,3.1
		c1.5,0.7,3.2,1.2,5.2,1.2c1.6,0,3.2-0.3,4.8-1c1.6-0.6,2.9-1.6,3.9-2.8l6.5,6.6c-1.7,1.8-3.9,3.3-6.6,4.3c-2.6,1-5.6,1.5-8.7,1.5
		c-3.1,0-5.9-0.5-8.7-1.5c-2.7-1-5.1-2.4-7.1-4.3c-2-1.9-3.7-4.2-4.8-6.9c-1.2-2.7-1.8-5.8-1.8-9.2c0-3.3,0.6-6.4,1.8-9
		c1.2-2.7,2.8-5,4.8-6.9c2-1.9,4.3-3.4,7-4.4s5.5-1.6,8.6-1.6c3.1,0,6,0.5,8.8,1.7c2.9,1.2,5.1,2.7,6.8,4.8L83.5,30.8z">
  </path>
  <path class="st0" d="M122.8,30.8c-0.8-1.2-2-2.1-3.6-2.9c-1.6-0.7-3.3-1.2-4.9-1.2c-1.9,0-3.5,0.4-5,1.2c-1.4,0.7-2.6,1.8-3.6,3.1
		c-1,1.3-1.6,2.7-2.1,4.3c-0.5,1.6-0.7,3.2-0.7,4.8c0,1.6,0.3,3.2,0.7,4.8c0.5,1.6,1.2,3,2.2,4.3c1,1.3,2.2,2.3,3.7,3.1
		c1.5,0.7,3.2,1.2,5.2,1.2c1.6,0,3.2-0.3,4.8-1c1.6-0.6,2.9-1.6,3.9-2.8l6.5,6.6c-1.7,1.8-3.9,3.3-6.6,4.3c-2.6,1-5.6,1.5-8.7,1.5
		c-3.1,0-5.9-0.5-8.7-1.5c-2.7-1-5.1-2.4-7.1-4.3c-2-1.9-3.7-4.2-4.8-6.9c-1.2-2.7-1.8-5.8-1.8-9.2c0-3.3,0.6-6.4,1.8-9
		c1.2-2.7,2.8-5,4.8-6.9c2-1.9,4.3-3.4,7-4.4s5.5-1.6,8.6-1.6c3.1,0,6,0.5,8.8,1.7c2.9,1.2,5.1,2.7,6.8,4.8L122.8,30.8z">
  </path>
  <path class="st0" d="M131.4,39.9c0-3.3,0.6-6.2,1.8-8.9c1.2-2.6,2.8-5,4.8-6.9c2-1.9,4.4-3.4,7.1-4.4c2.8-1,5.7-1.6,8.8-1.6
		c3.1,0,6,0.5,8.8,1.6c2.8,1,5.2,2.5,7.1,4.4c2,1.9,3.6,4.2,4.8,6.9c1.2,2.6,1.8,5.6,1.8,8.9c0,3.3-0.6,6.2-1.8,9
		c-1.2,2.7-2.8,5-4.8,6.9c-2,1.9-4.4,3.5-7.1,4.5c-2.7,1.1-5.7,1.6-8.8,1.6c-3.1,0-6-0.5-8.8-1.6c-2.8-1.1-5.2-2.6-7.1-4.5
		c-2-1.9-3.6-4.2-4.8-6.9C132,46.2,131.4,43.2,131.4,39.9z M141.9,39.9c0,1.6,0.3,3.2,0.7,4.8c0.5,1.6,1.2,3.1,2.2,4.3
		c1,1.3,2.2,2.3,3.7,3.1c1.5,0.8,3.3,1.2,5.4,1.2c2,0,3.9-0.4,5.4-1.2c1.5-0.8,2.7-1.8,3.7-3.1c1-1.3,1.7-2.7,2.2-4.3
		c0.5-1.6,0.7-3.2,0.7-4.8c0-1.6-0.3-3.2-0.7-4.8c-0.5-1.6-1.2-3-2.2-4.3c-1-1.3-2.2-2.3-3.7-3.1c-1.5-0.7-3.3-1.2-5.4-1.2
		c-2,0-3.9,0.4-5.4,1.2c-1.5,0.7-2.7,1.8-3.7,3.1c-1,1.3-1.7,2.7-2.2,4.3C142.2,36.7,141.9,38.3,141.9,39.9z">
  </path>
  <path class="st0" d="M221.8,60.8h-9.8v-6.7h-0.2c-1,2-2.5,3.9-4.8,5.5c-2.2,1.6-5,2.4-8.1,2.4c-2.7,0-5-0.5-6.9-1.4
		c-1.9-1-3.5-2.2-4.8-3.7c-1.2-1.6-2.2-3.3-2.7-5.4c-0.5-2-0.9-4.1-0.9-6.2V19.4h10.3v23c0,1.2,0.1,2.4,0.3,3.8
		c0.2,1.3,0.5,2.5,1.2,3.6c0.5,1.1,1.4,2,2.4,2.6c1,0.7,2.3,1,4,1c1.6,0,3.1-0.3,4.3-1c1.2-0.7,2.2-1.5,3-2.5c0.7-1,1.4-2.2,1.8-3.6
		c0.4-1.4,0.6-2.7,0.6-4.1V19.4h10.3L221.8,60.8L221.8,60.8z">
  </path>
  <path class="st0" d="M231.8,19.4h9.8V26h0.2c1-2,2.5-3.9,4.8-5.5c2.2-1.6,5-2.4,8.1-2.4c2.7,0,5,0.5,6.9,1.4c1.9,1,3.5,2.2,4.8,3.7
		c1.2,1.6,2.2,3.3,2.7,5.4c0.5,2,0.9,4.1,0.9,6.2v25.9h-10.3V37.8c0-1.2-0.1-2.4-0.3-3.8c-0.2-1.3-0.5-2.5-1.2-3.6
		c-0.5-1.1-1.4-2-2.4-2.6c-1-0.7-2.4-1-4-1c-1.7,0-3.1,0.3-4.3,1c-1.2,0.7-2.2,1.5-3,2.5c-0.7,1-1.4,2.2-1.8,3.6
		c-0.4,1.4-0.6,2.7-0.6,4.1v22.7h-10.3L231.8,19.4L231.8,19.4z">
  </path>
  <path class="st0" d="M273.9,27.6v-8.3h7.3v-12h10.2v12h10.3v8.3h-10.4v19.2c0,1.8,0.3,3.4,1,4.5c0.7,1.2,2.2,1.8,4.4,1.8
		c0.7,0,1.4-0.1,2.2-0.2c0.8-0.1,1.5-0.3,2.2-0.7l0.3,8.1c-1,0.3-2,0.6-3.3,0.8c-1.3,0.2-2.4,0.3-3.6,0.3c-2.8,0-5-0.4-6.7-1.2
		c-1.7-0.7-3.1-1.8-4.1-3.2c-1-1.4-1.7-2.9-2-4.7c-0.4-1.8-0.5-3.7-0.5-5.6V27.6H273.9z">
  </path>
  <path class="st0" d="M312.4,58.6c-1.8-1.6-2.7-3.9-2.7-6.7c0-2.3,0.7-4.2,2.2-5.7c1.5-1.5,3.2-2.6,5.2-3.5c2-0.9,4.7-1.8,7.9-2.8
		c3.3-1,5.8-1.9,7.5-2.7c1.6-0.8,2.4-1.9,2.4-3.3v-4.8c0-3-0.7-5-2.2-6.1c-1.5-1.1-3.5-1.6-6.2-1.6c-4.2,0-7.2,1-8.9,2.8
		c1.2,0.3,2.2,0.8,3,1.6c0.8,0.8,1.2,1.8,1.2,3.1c0,1.3-0.5,2.3-1.4,3.1c-1,0.7-2.2,1.1-3.7,1.1c-1.7,0-2.9-0.5-3.8-1.4
		c-0.8-0.9-1.3-2-1.3-3.3c0-1.2,0.3-2.2,1-3.1c0.7-0.8,1.7-1.6,3.1-2.4c1.4-0.9,3.3-1.6,5.5-2.2c2.2-0.5,4.6-0.8,7.3-0.8
		c4.7,0,8.2,1,10.6,2.9c1.5,1.2,2.5,2.6,3,4.3c0.5,1.7,0.7,3.9,0.7,6.6V55c0,1.3,0.2,2.2,0.6,2.8c0.4,0.5,1.2,0.8,2.2,0.8
		c0.7,0,1.4-0.1,2-0.4c0.6-0.3,1.3-0.7,2-1.2l1,1.3c-1.6,1-2.9,1.8-4,2.2c-1.1,0.4-2.5,0.7-4.2,0.7c-2.9,0-4.9-0.6-6-1.8
		c-1.2-1.2-1.7-2.9-1.7-5c-1.8,2.6-3.9,4.3-6.2,5.4c-2.3,1-5,1.5-7.9,1.5C317.1,61,314.3,60.2,312.4,58.6z M335,52.1V37
		c-0.5,0.7-1.3,1.3-2.2,1.8c-1,0.5-2.4,1.1-4.4,1.8c-2.3,0.8-4.1,1.6-5.5,2.4c-1.4,0.7-2.6,1.8-3.7,3.1c-1,1.3-1.6,2.9-1.6,5
		c0,2.3,0.7,4.1,2,5.2c1.3,1.2,3.1,1.8,5.2,1.8C328.8,58,332.2,56,335,52.1z">
  </path>
  <path class="st0" d="M389.9,25.1c3.1,3.6,4.8,8.8,4.8,15.6c0,4.5-0.9,8.3-2.7,11.4c-1.8,3.1-4.2,5.5-7.3,7.1
		c-3.1,1.6-6.4,2.4-10.1,2.4c-2.2,0-4.3-0.4-6.5-1.2c-2-0.7-3.9-1.9-5.4-3.3l-6.4,4.6l-1.6-0.5c0.4-1.3,0.6-2.8,0.6-4.5V9.4
		c0-2.4-0.5-4.1-1.6-5.2c-1-1.1-2.8-1.6-5.3-1.6V1c1.9,0.1,3.8,0.2,5.6,0.2c3.8,0,6.9-0.3,9.4-1.1V28c1.3-2.6,3.2-4.7,5.7-6.1
		c2.5-1.4,5.3-2.2,8.4-2.2C382.7,19.8,386.8,21.5,389.9,25.1z M382.9,55.1c2-3.1,3-7.9,3-14.5c0-6.2-0.9-10.9-2.7-14.1
		c-1.8-3.1-4.5-4.6-8.3-4.6c-2.5,0-4.8,0.8-6.9,2.5c-2.1,1.7-3.6,4-4.5,7.1V56c1.4,1.2,3,2.2,4.8,2.8c1.8,0.6,3.7,1,5.6,1
		C377.9,59.8,380.9,58.3,382.9,55.1z">
  </path>
  <path class="st0" d="M410.7,53.4c0,2.1,0.5,3.5,1.6,4.3c1,0.8,2.8,1.2,5.3,1.2v1.6c-5.5-0.2-9.2-0.3-10.9-0.3
		c-1.8,0-5.4,0.1-10.9,0.3v-1.6c2.5,0,4.3-0.4,5.3-1.2c1-0.8,1.6-2.2,1.6-4.3v-44c0-2.4-0.5-4.1-1.6-5.2c-1-1.1-2.8-1.6-5.3-1.6V0.9
		c1.8,0.1,3.7,0.2,5.6,0.2c3.8,0,6.9-0.3,9.4-1.1L410.7,53.4L410.7,53.4z">
  </path>
  <path class="st0" d="M456.1,51.3c-1.1,2.9-3.1,5.2-6,7.3c-3,2-6.6,3.1-10.7,3.1c-4.3,0-7.9-0.8-11.1-2.5c-3.1-1.7-5.5-4-7.1-7
		c-1.6-3-2.4-6.5-2.4-10.5c0-4.5,0.8-8.4,2.5-11.6c1.7-3.3,4.1-5.8,7.1-7.6c3.1-1.8,6.7-2.6,10.7-2.6c5.4,0,9.6,1.4,12.5,4.2
		c2.9,2.8,4.3,7.1,4.3,12.8h-28.2c-0.2,1.4-0.3,3.1-0.3,5c0,3.4,0.6,6.3,1.9,8.9c1.3,2.5,3,4.5,5.2,5.8c2.1,1.4,4.3,2,6.7,2
		c2.9,0,5.4-0.6,7.7-1.8c2.2-1.2,4.1-3.2,5.6-5.9L456.1,51.3z M431.3,24.7c-2,2.4-3.3,5.8-3.8,10.5h19.6c0.1-4-0.5-7.3-2-10.1
		c-1.5-2.6-3.7-4-6.5-4C435.8,21.2,433.3,22.4,431.3,24.7z">
  </path>
 </g>
</svg>