<svg version="1.1" id="Layer_1" xmlns="http://www.w3.org/2000/svg" xmlns:xlink="http://www.w3.org/1999/xlink" x="0px" y="0px" viewBox="0 0 670.1 89.8" style="enable-background:new 0 0 670.1 89.8;" xml:space="preserve">
 <style type="text/css">
  .st0{fill:#7DC14D;}
	.st1{fill:#1A1A1A;}
 </style>
 <g>
  <rect x="26.7" y="2.8" transform="matrix(0.7071 -0.7071 0.7071 0.7071 3.0101 26.465)" class="st0" width="13.6" height="13.6">
  </rect>
  <rect x="50.5" y="2.8" transform="matrix(0.7071 -0.7071 0.7071 0.7071 9.9944 43.3266)" class="st0" width="13.6" height="13.6">
  </rect>
  <rect x="50.5" y="49.6" transform="matrix(0.7071 -0.7071 0.7071 0.7071 -23.0807 57.0268)" class="st0" width="13.6" height="13.6">
  </rect>
  <polygon class="st1" points="34.5,71.7 43,80.2 33.4,89.8 23.8,80.2 32.4,71.7 32.4,64.9 24.9,57.5 18.1,57.5 9.6,66 0,56.4 
		9.6,46.8 18.1,55.3 24.9,55.3 33.4,46.8 43,56.4 34.5,64.9 	">
  </polygon>
  <rect x="50.5" y="73.4" transform="matrix(0.7071 -0.7071 0.7071 0.7071 -39.9424 64.0111)" class="st0" width="13.6" height="13.6">
  </rect>
  <rect x="74.4" y="49.6" transform="matrix(0.7071 -0.7071 0.7071 0.7071 -16.0964 73.8885)" class="st0" width="13.6" height="13.6">
  </rect>
  <rect x="26.7" y="25.7" transform="matrix(0.7071 -0.7071 0.7071 0.7071 -13.2028 33.1806)" class="st0" width="13.6" height="13.6">
  </rect>
  <rect x="2.8" y="25.7" transform="matrix(0.7071 -0.7071 0.7071 0.7071 -20.1873 16.3186)" class="st0" width="13.6" height="13.6">
  </rect>
  <rect x="50.5" y="25.7" transform="matrix(0.7071 -0.7071 0.7071 0.7071 -6.2185 50.0423)" class="st0" width="13.6" height="13.6">
  </rect>
  <rect x="74.4" y="25.7" transform="matrix(0.7071 -0.7071 0.7071 0.7071 0.7658 66.9039)" class="st0" width="13.6" height="13.6">
  </rect>
  <path class="st1" d="M135.7,26.8l-6.9,17.7h13.8L135.7,26.8z M130.7,13.2h9.9l19.8,51.4h-10.2l-4-10.6h-21L121,64.6h-10.2
		L130.7,13.2z">
  </path>
  <path class="st1" d="M166.9,26.6h9.5v3.9c2.2-1.8,4.1-3.1,5.9-3.8c1.8-0.7,3.6-1.1,5.4-1.1c3.8,0,7,1.3,9.6,4
		c2.2,2.2,3.3,5.5,3.3,9.9v25.1h-9.4V48c0-4.5-0.2-7.6-0.6-9c-0.4-1.5-1.1-2.6-2.1-3.4c-1-0.8-2.3-1.2-3.7-1.2c-1.9,0-3.6,0.6-5,1.9
		c-1.4,1.3-2.3,3.1-2.9,5.4c-0.3,1.2-0.4,3.8-0.4,7.7v15.3h-9.5V26.6z">
  </path>
  <path class="st1" d="M227.9,34.4c-2.9,0-5.4,1-7.4,3.1c-2,2.1-2.9,4.8-2.9,8c0,3.3,1,6,3,8.1c2,2.1,4.4,3.2,7.3,3.2
		c3,0,5.5-1,7.5-3.1s3-4.8,3-8.2c0-3.3-1-6-3-8C233.4,35.4,230.9,34.4,227.9,34.4 M237.9,26.6h9.5v38h-9.5v-4
		c-1.9,1.8-3.7,3-5.6,3.8s-3.9,1.2-6.1,1.2c-4.9,0-9.2-1.9-12.7-5.7c-3.6-3.8-5.4-8.5-5.4-14.2c0-5.9,1.7-10.7,5.2-14.4
		c3.5-3.8,7.7-5.6,12.6-5.6c2.3,0,4.4,0.4,6.4,1.3c2,0.9,3.9,2.2,5.6,3.9V26.6z">
  </path>
  <rect x="256.1" y="11.9" class="st1" width="9.5" height="52.7">
  </rect>
  <polygon class="st1" points="270.1,26.6 279.8,26.6 289.7,50.5 300.6,26.6 310.4,26.6 286.6,78.5 276.7,78.5 284.5,61.8 	">
  </polygon>
  <polygon class="st1" points="317,12.6 326.5,12.6 326.5,26.6 332.2,26.6 332.2,34.8 326.5,34.8 326.5,64.6 317,64.6 317,34.8 
		312.1,34.8 312.1,26.6 317,26.6 	">
  </polygon>
  <path class="st1" d="M336.3,26.6h9.5v38h-9.5V26.6z M341,10.9c1.7,0,3.1,0.6,4.3,1.8c1.2,1.2,1.8,2.7,1.8,4.4
		c0,1.7-0.6,3.2-1.8,4.4c-1.2,1.2-2.6,1.8-4.3,1.8c-1.7,0-3.1-0.6-4.3-1.8c-1.2-1.2-1.8-2.7-1.8-4.5c0-1.7,0.6-3.1,1.8-4.3
		C337.9,11.5,339.4,10.9,341,10.9z">
  </path>
  <path class="st1" d="M391.7,34.3l-7.9,4.4c-1.5-1.6-3-2.6-4.4-3.3c-1.5-0.6-3.2-0.9-5.1-0.9c-3.6,0-6.5,1.1-8.7,3.2
		c-2.2,2.1-3.3,4.9-3.3,8.2c0,3.2,1.1,5.9,3.2,7.9c2.1,2,4.9,3.1,8.4,3.1c4.3,0,7.6-1.5,10-4.4l7.5,5.2c-4.1,5.3-9.8,8-17.3,8
		c-6.7,0-11.9-2-15.7-5.9c-3.8-4-5.7-8.6-5.7-13.9c0-3.7,0.9-7.1,2.8-10.2c1.8-3.1,4.4-5.5,7.7-7.3c3.3-1.8,7-2.7,11.1-2.7
		c3.8,0,7.2,0.8,10.2,2.3C387.3,29.4,389.8,31.5,391.7,34.3">
  </path>
  <path class="st1" d="M423.6,31.9l-5.9,5.9c-2.4-2.4-4.6-3.6-6.5-3.6c-1.1,0-1.9,0.2-2.5,0.7c-0.6,0.5-0.9,1-0.9,1.7
		c0,0.5,0.2,1,0.6,1.4c0.4,0.4,1.3,1,2.8,1.8l3.5,1.7c3.7,1.8,6.2,3.7,7.6,5.6s2.1,4.1,2.1,6.6c0,3.4-1.2,6.2-3.7,8.5
		c-2.5,2.3-5.8,3.4-10,3.4c-5.5,0-10-2.2-13.3-6.5l5.9-6.4c1.1,1.3,2.4,2.4,3.9,3.2c1.5,0.8,2.8,1.2,4,1.2c1.3,0,2.3-0.3,3-0.9
		c0.8-0.6,1.2-1.3,1.2-2.1c0-1.5-1.4-2.9-4.2-4.3l-3.2-1.6c-6.2-3.1-9.2-7-9.2-11.6c0-3,1.2-5.6,3.5-7.7c2.3-2.1,5.3-3.2,8.9-3.2
		c2.5,0,4.8,0.5,7,1.6C420.2,28.3,422.1,29.9,423.6,31.9">
  </path>
  <rect x="452.2" y="13.2" class="st0" width="9.7" height="51.4">
  </rect>
  <path class="st0" d="M471.9,26.6h9.5v3.9c2.2-1.8,4.1-3.1,5.9-3.8c1.8-0.7,3.6-1.1,5.4-1.1c3.8,0,7,1.3,9.6,4
		c2.2,2.2,3.3,5.5,3.3,9.9v25.1h-9.4V48c0-4.5-0.2-7.6-0.6-9c-0.4-1.5-1.1-2.6-2.1-3.4c-1-0.8-2.3-1.2-3.8-1.2c-1.9,0-3.6,0.6-5,1.9
		c-1.4,1.3-2.3,3.1-2.9,5.4c-0.3,1.2-0.4,3.8-0.4,7.7v15.3h-9.5V26.6z">
  </path>
  <path class="st0" d="M538.1,31.9l-5.9,5.9c-2.4-2.4-4.6-3.6-6.5-3.6c-1.1,0-1.9,0.2-2.5,0.7c-0.6,0.5-0.9,1-0.9,1.7
		c0,0.5,0.2,1,0.6,1.4c0.4,0.4,1.3,1,2.8,1.8l3.5,1.7c3.7,1.8,6.2,3.7,7.6,5.6s2.1,4.1,2.1,6.6c0,3.4-1.2,6.2-3.7,8.5
		c-2.5,2.3-5.8,3.4-10,3.4c-5.5,0-10-2.2-13.3-6.5l5.9-6.4c1.1,1.3,2.4,2.4,3.9,3.2c1.5,0.8,2.8,1.2,4,1.2c1.3,0,2.3-0.3,3-0.9
		c0.8-0.6,1.2-1.3,1.2-2.1c0-1.5-1.4-2.9-4.2-4.3l-3.2-1.6c-6.2-3.1-9.2-7-9.2-11.6c0-3,1.2-5.6,3.5-7.7c2.3-2.1,5.3-3.2,8.9-3.2
		c2.5,0,4.8,0.5,7,1.6S536.6,29.9,538.1,31.9">
  </path>
  <path class="st0" d="M545.3,26.6h9.5v38h-9.5V26.6z M550.1,10.9c1.7,0,3.1,0.6,4.3,1.8c1.2,1.2,1.8,2.7,1.8,4.4
		c0,1.7-0.6,3.2-1.8,4.4c-1.2,1.2-2.6,1.8-4.3,1.8c-1.7,0-3.1-0.6-4.3-1.8c-1.2-1.2-1.8-2.7-1.8-4.5c0-1.7,0.6-3.1,1.8-4.3
		C547,11.5,548.4,10.9,550.1,10.9z">
  </path>
  <path class="st0" d="M581.7,34.5c-3,0-5.5,1-7.4,3c-2,2-2.9,4.6-2.9,7.6c0,3.2,1,5.8,3,7.8c2,2,4.5,3,7.6,3c3,0,5.4-1,7.3-3
		c1.9-2,2.9-4.6,2.9-7.8c0-3.2-1-5.7-2.9-7.7C587.3,35.5,584.8,34.5,581.7,34.5 M591.6,26.6h9.5v32.6c0,6.4-1.3,11.2-3.9,14.2
		c-3.5,4.1-8.7,6.2-15.7,6.2c-3.7,0-6.9-0.5-9.4-1.4c-2.5-0.9-4.7-2.3-6.4-4.1c-1.7-1.8-3-4-3.9-6.6h10.5c0.9,1.1,2.1,1.9,3.6,2.4
		c1.5,0.5,3.2,0.8,5.2,0.8c2.6,0,4.6-0.4,6.2-1.2c1.6-0.8,2.7-1.8,3.3-3.1c0.6-1.3,1-3.4,1-6.5c-1.7,1.7-3.4,2.9-5.3,3.6
		c-1.8,0.7-3.9,1.1-6.3,1.1c-5.1,0-9.4-1.8-12.9-5.5c-3.5-3.7-5.3-8.3-5.3-14c0-6,1.9-10.9,5.6-14.5c3.4-3.3,7.4-5,12.1-5
		c2.2,0,4.3,0.4,6.2,1.2c1.9,0.8,3.9,2.1,5.9,4V26.6z">
  </path>
  <path class="st0" d="M610.8,11.9h9.5v18.5c1.9-1.6,3.7-2.8,5.6-3.6c1.9-0.8,3.8-1.2,5.7-1.2c3.8,0,7,1.3,9.5,3.9
		c2.2,2.3,3.3,5.6,3.3,10v25.1h-9.4V47.9c0-4.4-0.2-7.4-0.6-9c-0.4-1.6-1.1-2.7-2.1-3.5c-1-0.8-2.3-1.2-3.8-1.2
		c-1.9,0-3.6,0.6-5,1.9c-1.4,1.3-2.3,3-2.9,5.2c-0.3,1.1-0.4,3.8-0.4,7.8v15.3h-9.5V11.9z">
  </path>
  <polygon class="st0" points="654.9,12.6 664.4,12.6 664.4,26.6 670.1,26.6 670.1,34.8 664.4,34.8 664.4,64.6 654.9,64.6 
		654.9,34.8 650,34.8 650,26.6 654.9,26.6 	">
  </polygon>
 </g>
</svg>